<svg width="256" height="47" viewBox="0 0 256 47" fill="none" xmlns="http://www.w3.org/2000/svg">
<g clip-path="url(#clip0_7047_21688)">
<path fill-rule="evenodd" clip-rule="evenodd" d="M36.8335 34.4682C36.8335 34.4682 37.1566 34.7874 37.1566 35.1065C37.8028 36.3831 38.1259 37.6597 38.1259 38.9363C38.1259 43.4045 34.5718 46.9151 30.3715 46.9151C26.1712 46.9151 22.6171 43.4045 22.6171 38.9363C22.6171 37.3406 23.2633 35.4257 24.2326 34.1491L24.5557 33.8299C34.8949 21.7022 24.8788 14.3618 23.9095 12.1277C22.9402 10.8511 22.6171 9.25536 22.6171 7.65961C22.6171 3.51065 26.1712 0 30.3715 0C34.5718 0 38.1259 3.51065 38.1259 7.65961C38.1259 8.93621 38.1259 9.89366 37.4797 10.8511C31.3408 24.5746 30.0484 24.5746 36.8335 34.4682ZM56.8658 31.915C59.7737 33.1916 61.3892 36.064 61.3892 38.9363C61.3892 43.4045 57.8351 46.9151 53.6348 46.9151C49.4345 46.9151 45.8803 43.4045 45.8803 38.9363C45.8803 38.6172 45.8803 38.298 45.8803 37.6597C46.8496 32.2342 44.5879 32.5533 40.3876 30.6384C37.4797 29.3618 35.5411 26.4895 35.5411 23.298C35.5411 19.149 39.0952 15.6384 43.6186 15.6384C47.819 15.6384 51.3731 19.149 51.3731 23.298C51.3731 23.6171 51.3731 23.9363 51.3731 24.2554C50.7269 32.2342 52.9886 30.0001 56.8658 31.915ZM7.75442 31.2767C8.07753 31.2767 8.07753 31.2767 8.07753 31.2767C9.69303 30.9576 10.6623 30.0001 10.3392 25.532V25.8512C10.0161 24.8937 10.0161 24.2554 10.0161 23.298C10.0161 19.149 13.5702 15.6384 18.0937 15.6384C22.294 15.6384 25.8481 19.149 25.8481 23.298C25.8481 26.8086 23.9095 29.3618 21.0016 30.6384C16.8013 32.5533 14.8626 31.915 15.5088 37.6597C15.832 37.9789 15.832 38.6172 15.832 38.9363C15.832 43.4045 12.2778 46.9151 7.75442 46.9151C3.55411 46.9151 0 43.4045 0 38.9363C0 34.7874 3.55411 31.2767 7.75442 31.2767Z" fill="#ACCF2D"/>
<path fill-rule="evenodd" clip-rule="evenodd" d="M255.25 26.4887C255.25 19.4674 249.434 13.7227 242.003 13.7227C238.126 13.7227 234.895 15.3184 232.31 18.1908C230.048 15.3184 226.494 13.7227 222.617 13.7227C215.509 13.7227 209.693 19.4674 209.693 26.4887V42.4462C209.693 44.3611 210.985 45.6377 212.924 45.6377C214.539 45.6377 216.155 44.3611 216.155 42.4462V26.4887C216.155 22.978 219.063 20.1057 222.617 20.1057C226.171 20.1057 229.079 22.978 229.079 26.4887V42.4462C229.079 44.3611 230.694 45.6377 232.31 45.6377C234.248 45.6377 235.541 44.3611 235.541 42.4462V26.4887C235.541 22.978 238.449 20.1057 242.003 20.1057C245.88 20.1057 248.788 22.978 248.788 26.4887V26.8078C248.788 26.8078 248.788 26.8078 248.788 27.127V42.4462C248.788 44.3611 250.08 45.6377 252.019 45.6377C253.635 45.6377 255.25 44.3611 255.25 42.4462V27.127C255.25 26.8078 255.25 26.8078 254.927 26.8078C255.25 26.8078 255.25 26.4887 255.25 26.4887Z" fill="#323F6F"/>
<path fill-rule="evenodd" clip-rule="evenodd" d="M202.585 20.1057C203.231 20.1057 204.2 19.7865 204.846 19.1482C205.169 18.8291 205.492 17.8716 205.492 16.9142C205.492 16.2759 205.169 15.3184 204.846 14.6801C204.2 14.361 203.231 13.7227 202.585 13.7227C201.615 13.7227 200.646 14.361 200.323 14.6801C199.677 15.3184 199.354 16.2759 199.354 16.9142C199.354 17.8716 199.677 18.8291 200.323 19.1482C200.646 19.7865 201.615 20.1057 202.585 20.1057Z" fill="#ACCF2D"/>
<path fill-rule="evenodd" clip-rule="evenodd" d="M202.585 45.6394C204.2 45.6394 205.492 44.3628 205.492 42.4479V26.4903C205.492 24.8946 204.2 23.2988 202.585 23.2988C200.646 23.2988 199.354 24.8946 199.354 26.4903V42.4479C199.354 44.3628 200.646 45.6394 202.585 45.6394Z" fill="#323F6F"/>
<path fill-rule="evenodd" clip-rule="evenodd" d="M192.245 13.7227C183.198 13.7227 175.767 20.744 175.767 29.6802V42.4462C175.767 44.0419 177.383 45.6377 178.998 45.6377C180.937 45.6377 182.229 44.0419 182.229 42.4462V29.6802C182.229 24.2546 186.753 20.1057 192.245 20.1057C193.861 20.1057 195.476 18.5099 195.476 16.9142C195.476 14.9993 193.861 13.7227 192.245 13.7227Z" fill="#323F6F"/>
<path fill-rule="evenodd" clip-rule="evenodd" d="M168.982 43.7229C169.951 43.7229 170.597 43.4037 171.244 42.7654C171.89 42.4463 172.213 41.4888 172.213 40.5313C172.213 39.893 171.89 38.9356 171.244 38.2973C170.597 37.9781 169.951 37.3398 168.982 37.3398C168.012 37.3398 167.366 37.9781 166.72 38.2973C166.074 38.9356 165.751 39.893 165.751 40.5313C165.751 41.4888 166.074 42.4463 166.72 42.7654C167.366 43.4037 168.012 43.7229 168.982 43.7229Z" fill="#ACCF2D"/>
<path fill-rule="evenodd" clip-rule="evenodd" d="M168.982 32.8717C170.597 32.8717 172.213 31.2759 172.213 29.6802V16.9142C172.213 14.9993 170.597 13.7227 168.982 13.7227C167.043 13.7227 165.751 14.9993 165.751 16.9142V29.6802C165.751 31.2759 167.043 32.8717 168.982 32.8717Z" fill="#323F6F"/>
<path fill-rule="evenodd" clip-rule="evenodd" d="M161.874 26.4887C161.874 19.4674 156.058 13.7227 148.949 13.7227C145.072 13.7227 141.518 15.3184 138.933 18.1908C136.672 15.3184 133.118 13.7227 129.24 13.7227C122.132 13.7227 116.316 19.4674 116.316 26.4887V42.4462C116.316 44.3611 117.609 45.6377 119.547 45.6377C121.163 45.6377 122.778 44.3611 122.778 42.4462V26.4887C122.778 22.978 125.686 20.1057 129.24 20.1057C132.794 20.1057 135.702 22.978 135.702 26.4887V42.4462C135.702 44.3611 137.318 45.6377 138.933 45.6377C140.872 45.6377 142.164 44.3611 142.164 42.4462V26.4887C142.164 22.978 145.072 20.1057 148.949 20.1057C152.504 20.1057 155.412 22.978 155.412 26.4887V26.8078C155.412 26.8078 155.412 26.8078 155.412 27.127V42.4462C155.412 44.3611 156.704 45.6377 158.643 45.6377C160.258 45.6377 161.874 44.3611 161.874 42.4462V27.127C161.874 26.8078 161.874 26.8078 161.874 26.8078V26.4887Z" fill="#323F6F"/>
<path fill-rule="evenodd" clip-rule="evenodd" d="M109.208 20.1057C109.854 20.1057 110.824 19.7865 111.47 19.1482C112.116 18.8291 112.439 17.8716 112.439 16.9142C112.439 16.2759 112.116 15.3184 111.47 14.6801C110.824 14.361 109.854 13.7227 109.208 13.7227C108.239 13.7227 107.593 14.361 106.946 14.6801C106.3 15.3184 105.977 16.2759 105.977 16.9142C105.977 17.8716 106.3 18.8291 106.946 19.1482C107.593 19.7865 108.239 20.1057 109.208 20.1057Z" fill="#ACCF2D"/>
<path fill-rule="evenodd" clip-rule="evenodd" d="M109.208 45.6394C110.824 45.6394 112.439 44.3628 112.439 42.4479V26.4903C112.439 24.8946 110.824 23.2988 109.208 23.2988C107.27 23.2988 105.977 24.8946 105.977 26.4903V42.4479C105.977 44.3628 107.27 45.6394 109.208 45.6394Z" fill="#323F6F"/>
<path fill-rule="evenodd" clip-rule="evenodd" d="M102.1 41.4891L88.8528 3.19108C88.5297 2.23363 87.2373 0.957031 85.9449 0.957031C84.3294 0.957031 83.0371 2.23363 82.714 3.19108L68.8205 41.4891C68.4974 42.7657 69.1436 44.6806 71.0822 45.6381C71.4053 45.6381 71.4053 45.6381 71.7284 45.6381C73.3439 45.6381 74.6364 44.6806 74.9595 43.404L76.2519 40.2125L83.6833 19.7869L85.9449 14.0422V13.723L91.1145 29.3614L91.4376 30.3189L95.3148 41.8083L95.6379 43.404C96.6072 45.3189 98.5458 45.9572 100.162 45.6381C102.1 44.6806 102.746 42.7657 102.1 41.4891Z" fill="#323F6F"/>
<path fill-rule="evenodd" clip-rule="evenodd" d="M85.9451 30.6387C88.2068 30.6387 89.8223 32.2344 89.8223 34.4685C89.8223 36.7025 88.2068 38.2983 85.9451 38.2983C83.6834 38.2983 82.0679 36.7025 82.0679 34.4685C82.0679 32.2344 83.6834 30.6387 85.9451 30.6387Z" fill="#ACCF2D"/>
</g>
<defs>
<clipPath id="clip0_7047_21688">
<rect width="256" height="47" fill="white"/>
</clipPath>
</defs>
</svg>
